<?xml version="1.0" standalone="no"?>
<!DOCTYPE svg PUBLIC "-//W3C//DTD SVG 20010904//EN"
 "http://www.w3.org/TR/2001/REC-SVG-20010904/DTD/svg10.dtd">
<svg version="1.0" xmlns="http://www.w3.org/2000/svg"
 width="1608.000000pt" height="1608.000000pt" viewBox="0 0 1608.000000 1608.000000"
 preserveAspectRatio="xMidYMid meet">
<metadata>
Created by potrace 1.14, written by Peter Selinger 2001-2017
</metadata>
<g transform="translate(0.000000,1608.000000) scale(0.100000,-0.100000)"
fill="#000000" stroke="none">
<path d="M7738 16075 c-2 -1 -64 -6 -138 -9 -74 -4 -151 -8 -170 -11 -19 -2
-72 -6 -116 -10 -45 -3 -93 -8 -105 -10 -13 -2 -55 -6 -93 -10 -38 -4 -79 -8
-90 -10 -12 -2 -43 -7 -71 -10 -75 -10 -97 -13 -130 -19 -16 -3 -61 -10 -100
-16 -38 -7 -115 -20 -170 -31 -55 -11 -113 -22 -130 -25 -24 -4 -159 -34 -225
-49 -339 -80 -851 -241 -1085 -341 -16 -7 -66 -27 -110 -44 -44 -17 -93 -37
-110 -45 -16 -8 -75 -34 -131 -59 -247 -110 -580 -284 -839 -439 -97 -59 -321
-203 -323 -209 -2 -4 -8 -8 -12 -8 -12 0 -315 -213 -377 -264 -15 -13 -49 -38
-108 -83 -26 -20 -111 -88 -115 -93 -3 -3 -43 -37 -90 -75 -47 -38 -97 -81
-112 -95 -15 -14 -42 -38 -60 -54 -193 -168 -472 -447 -658 -655 -36 -41 -70
-79 -75 -85 -12 -13 -152 -181 -175 -209 -8 -11 -20 -25 -27 -32 -23 -24 -261
-343 -328 -440 -415 -597 -726 -1204 -983 -1920 -39 -108 -101 -296 -107 -325
-2 -8 -10 -35 -18 -60 -45 -134 -159 -604 -191 -790 -2 -14 -11 -63 -20 -110
-8 -47 -25 -150 -36 -230 -19 -135 -23 -168 -35 -260 -2 -19 -7 -66 -10 -105
-3 -38 -8 -90 -10 -115 -32 -342 -37 -881 -10 -1235 9 -118 15 -188 21 -235 2
-25 6 -65 8 -90 4 -41 8 -76 21 -180 18 -136 52 -347 75 -460 11 -52 21 -106
24 -120 13 -73 101 -443 126 -525 5 -16 21 -70 35 -120 80 -270 249 -736 335
-922 17 -35 30 -66 30 -68 0 -17 207 -435 292 -590 78 -142 90 -163 147 -255
28 -45 51 -84 51 -86 0 -2 23 -38 50 -80 28 -41 50 -77 50 -79 0 -8 232 -341
314 -450 317 -422 624 -760 1051 -1155 33 -31 103 -91 155 -135 52 -44 97 -82
100 -85 13 -13 79 -67 110 -90 18 -14 38 -30 44 -35 6 -6 38 -31 71 -55 33
-25 62 -47 65 -50 22 -22 262 -193 406 -288 278 -184 542 -337 851 -491 122
-61 224 -111 227 -111 2 0 37 -15 78 -34 316 -147 787 -314 1183 -421 169 -46
530 -128 615 -140 14 -2 77 -13 140 -24 63 -11 135 -22 160 -26 25 -3 93 -12
152 -20 59 -8 131 -17 160 -19 29 -3 82 -8 118 -11 392 -36 1055 -41 1370 -10
25 3 96 10 158 16 61 5 122 12 135 14 12 2 49 6 82 10 72 8 109 13 195 27 36
5 79 12 95 14 17 2 46 7 65 11 19 3 44 8 55 10 11 2 54 10 95 18 41 8 86 16
100 19 14 2 45 9 70 15 25 5 56 12 70 14 14 3 45 10 70 17 25 7 53 14 63 15 9
2 45 11 80 20 71 19 71 19 112 30 351 89 846 266 1220 436 264 119 696 348
885 469 89 56 400 263 445 295 28 20 61 44 75 53 14 9 27 19 30 22 3 3 21 17
40 30 42 30 30 20 220 172 85 68 169 135 185 149 17 15 55 48 85 74 251 217
578 547 800 804 30 36 60 69 65 75 6 6 46 56 90 111 44 55 83 102 86 105 3 3
57 75 120 160 146 196 263 367 373 545 48 77 91 147 96 155 95 153 303 550
403 770 31 68 60 133 62 140 1 3 9 23 19 45 67 151 261 676 281 761 2 10 20
73 40 139 30 101 78 278 90 335 2 8 11 47 20 85 9 39 18 77 20 85 25 106 97
499 110 600 3 25 8 61 10 80 7 47 12 93 20 165 3 33 8 71 10 85 3 22 12 123
21 240 18 248 23 707 10 975 -9 176 -10 201 -31 420 -5 61 -18 170 -20 186 -2
9 -6 40 -10 70 -6 54 -10 77 -19 134 -3 17 -10 59 -15 95 -6 36 -13 75 -15 86
-4 19 -12 64 -21 119 -2 11 -8 45 -14 75 -6 30 -14 69 -17 85 -6 37 -80 347
-94 395 -5 19 -28 99 -50 178 -335 1183 -978 2317 -1840 3246 -269 289 -623
615 -915 841 -49 38 -92 72 -95 75 -15 17 -316 230 -445 314 -188 124 -197
130 -325 205 -58 34 -112 66 -120 71 -8 5 -42 23 -75 41 -33 17 -72 40 -87 50
-14 11 -31 19 -37 19 -6 0 -28 11 -49 23 -62 39 -414 208 -547 263 -33 14 -78
33 -100 43 -153 70 -571 216 -840 295 -129 38 -458 121 -515 131 -19 3 -42 8
-50 10 -8 2 -26 6 -40 9 -239 46 -442 81 -534 91 -23 3 -58 8 -78 10 -91 12
-117 15 -183 20 -38 4 -77 8 -85 10 -8 2 -67 7 -130 11 -63 4 -133 8 -155 10
-47 5 -763 13 -767 9z"/>
</g>
</svg>
